<svg width="44" height="44" viewBox="0 0 44 44" fill="none" xmlns="http://www.w3.org/2000/svg">
<circle cx="22" cy="22" r="22" fill="#F6F6F6"/>
<path fill-rule="evenodd" clip-rule="evenodd" d="M16.5891 15.117C16.5891 16.2939 15.7032 17.2355 14.2809 17.2355H14.2548C12.8853 17.2355 12 16.2939 12 15.117C12 13.9153 12.9123 13 14.3078 13C15.7032 13 16.5626 13.9153 16.5891 15.117ZM16.3204 18.9084V31.1646H12.2412V18.9084H16.3204ZM31.0314 31.1647L31.0315 24.1373C31.0315 20.3727 29.0191 18.6206 26.3348 18.6206C24.1691 18.6206 23.1994 19.8102 22.658 20.6447V18.9087H18.5783C18.6321 20.0588 18.5783 31.165 18.5783 31.165H22.658V24.3201C22.658 23.9538 22.6845 23.5884 22.7923 23.3261C23.0871 22.5943 23.7584 21.8367 24.8854 21.8367C26.3621 21.8367 26.9523 22.9605 26.9523 24.6075V31.1647H31.0314Z" fill="#B9B9B9"/>
</svg>
