<svg width="44" height="44" viewBox="0 0 44 44" fill="none" xmlns="http://www.w3.org/2000/svg">
<circle cx="22" cy="22" r="22" fill="#F6F6F6"/>
<path d="M21.4609 20.8306L21.4987 21.4535L20.8691 21.3772C18.5776 21.0848 16.5757 20.0934 14.876 18.4282L14.045 17.602L13.831 18.2122C13.3777 19.5722 13.6673 21.0086 14.6116 21.9746C15.1152 22.5085 15.0019 22.5847 14.1332 22.267C13.831 22.1653 13.5666 22.089 13.5414 22.1272C13.4533 22.2161 13.7554 23.3728 13.9947 23.8304C14.322 24.466 14.9893 25.0888 15.7196 25.4574L16.3365 25.7498L15.6063 25.7625C14.9012 25.7625 14.876 25.7752 14.9515 26.0421C15.2034 26.8684 16.198 27.7454 17.306 28.1268L18.0866 28.3937L17.4067 28.8004C16.3995 29.3851 15.216 29.7156 14.0324 29.7411C13.4659 29.7538 13 29.8046 13 29.8427C13 29.9699 14.5361 30.6817 15.43 30.9613C18.1118 31.7875 21.2972 31.4316 23.6894 30.0207C25.3892 29.0165 27.0889 27.0209 27.8821 25.0888C28.3102 24.0592 28.7383 22.178 28.7383 21.2755C28.7383 20.6908 28.7761 20.6145 29.4811 19.9154C29.8966 19.5087 30.2869 19.0638 30.3625 18.9367C30.4884 18.6952 30.4758 18.6952 29.8337 18.9113C28.7635 19.2926 28.6124 19.2417 29.1412 18.6697C29.5315 18.263 29.9973 17.5258 29.9973 17.3097C29.9973 17.2715 29.8085 17.3351 29.5944 17.4495C29.3678 17.5766 28.8642 17.7673 28.4865 17.8817L27.8066 18.0978L27.1896 17.6783C26.8497 17.4495 26.3712 17.1953 26.1194 17.119C25.4773 16.941 24.4952 16.9665 23.9161 17.1698C22.3422 17.7418 21.3476 19.2163 21.4609 20.8306Z" fill="#B9B9B9"/>
</svg>
